<svg width="98" height="20" viewBox="0 0 98 20" fill="none" xmlns="http://www.w3.org/2000/svg">
<path d="M21.282 0.747999V19H16.836V8.054L12.754 19H9.166L5.058 8.028V19H0.612V0.747999H5.864L10.986 13.384L16.056 0.747999H21.282ZM28.8472 0.747999V11.668C28.8472 12.76 29.1159 13.6007 29.6532 14.19C30.1905 14.7793 30.9792 15.074 32.0192 15.074C33.0592 15.074 33.8565 14.7793 34.4112 14.19C34.9659 13.6007 35.2432 12.76 35.2432 11.668V0.747999H39.6892V11.642C39.6892 13.2713 39.3425 14.6493 38.6492 15.776C37.9559 16.9027 37.0199 17.752 35.8412 18.324C34.6799 18.896 33.3799 19.182 31.9412 19.182C30.5025 19.182 29.2112 18.9047 28.0672 18.35C26.9405 17.778 26.0479 16.9287 25.3892 15.802C24.7305 14.658 24.4012 13.2713 24.4012 11.642V0.747999H28.8472ZM59.1392 19H54.6932L47.2572 7.742V19H42.8112V0.747999H47.2572L54.6932 12.058V0.747999H59.1392V19ZM72.944 19L66.808 10.94V19H62.362V0.747999H66.808V8.756L72.892 0.747999H78.118L71.046 9.692L78.378 19H72.944ZM91.8529 15.776H85.0409L83.9489 19H79.2949L85.8989 0.747999H91.0469L97.6509 19H92.9449L91.8529 15.776ZM90.7089 12.344L88.4469 5.662L86.2109 12.344H90.7089Z" fill="white"/>
</svg>
